<svg width="25" height="25" viewBox="0 0 25 25" fill="none" xmlns="http://www.w3.org/2000/svg">
<path d="M6.70241 9.8375C6.51806 9.68776 6.2898 9.60241 6.05244 9.59444H5.07888V15.425H6.05244C6.29024 15.4171 6.51897 15.3318 6.70379 15.1819C6.91906 15.0194 7.02739 14.7764 7.02739 14.4528V10.5667C7.02878 10.2431 6.91767 10 6.70241 9.8375ZM22.5487 0H2.44986C1.09855 0 0.00277762 1.09306 0 2.44444V22.5556C0.00277762 23.9069 1.09855 25 2.44986 25H22.5501C23.9015 25 24.9972 23.9069 25 22.5556V2.44444C24.9982 1.7955 24.7391 1.17376 24.2796 0.715538C23.8201 0.257314 23.1977 -2.60392e-06 22.5487 0ZM8.60369 14.4639C8.60369 15.5125 7.9565 17.1042 5.90662 17.1H3.31787V7.86806H5.96078C7.93845 7.86806 8.6023 9.45694 8.60369 10.5056V14.4639ZM14.2214 9.51667H11.2494V11.6611H13.0673V13.3111H11.2494V15.4542H14.2242V17.1042H10.755C10.4557 17.1116 10.1657 16.9999 9.94881 16.7937C9.73187 16.5874 9.60572 16.3034 9.59808 16.0042V9.02361C9.59099 8.72458 9.70283 8.43496 9.90905 8.21831C10.1153 8.00167 10.399 7.8757 10.698 7.86806H14.2242L14.2214 9.51667ZM20.0058 15.95C19.2684 17.6653 17.949 17.325 17.3588 15.95L15.2089 7.86944H17.0268L18.6837 14.2153L20.3336 7.86944H22.1529L20.0058 15.95Z" fill="#ffffff"/>
</svg>
